<svg xmlns="http://www.w3.org/2000/svg" viewBox="0 0 220 40">
  <path fill="#fff" d="M23.9 7.9c-2.1 0-3.9.7-5.3 2s-2.1 3.1-2.1 5.4.7 4 2.1 5.4c1.4 1.3 3.2 2 5.3 2s3.9-.7 5.3-2c1.4-1.3 2.1-3.1 2.1-5.4s-.7-4-2.1-5.4c-1.4-1.3-3.2-2-5.3-2zM40.4 0h7.4v31.7h-7.4zM62.9 7.9c-2.1 0-3.9.7-5.3 2s-2.1 3.1-2.1 5.4.7 4 2.1 5.4c1.4 1.3 3.2 2 5.3 2s3.9-.7 5.3-2c1.4-1.3 2.1-3.1 2.1-5.4s-.7-4-2.1-5.4c-1.4-1.3-3.2-2-5.3-2zM79.4 0h7.4v31.7h-7.4zM101.9 7.9c-2.1 0-3.9.7-5.3 2s-2.1 3.1-2.1 5.4.7 4 2.1 5.4c1.4 1.3 3.2 2 5.3 2s3.9-.7 5.3-2c1.4-1.3 2.1-3.1 2.1-5.4s-.7-4-2.1-5.4c-1.4-1.3-3.2-2-5.3-2zM118.4 0h7.4v31.7h-7.4zM140.9 7.9c-2.1 0-3.9.7-5.3 2s-2.1 3.1-2.1 5.4.7 4 2.1 5.4c1.4 1.3 3.2 2 5.3 2s3.9-.7 5.3-2c1.4-1.3 2.1-3.1 2.1-5.4s-.7-4-2.1-5.4c-1.4-1.3-3.2-2-5.3-2zM157.4 0h7.4v31.7h-7.4zM179.9 7.9c-2.1 0-3.9.7-5.3 2s-2.1 3.1-2.1 5.4.7 4 2.1 5.4c1.4 1.3 3.2 2 5.3 2s3.9-.7 5.3-2c1.4-1.3 2.1-3.1 2.1-5.4s-.7-4-2.1-5.4c-1.4-1.3-3.2-2-5.3-2zM196.4 0h7.4v31.7h-7.4z"/>
  <text x="10" y="38" fill="#fff" font-family="Arial" font-size="12">COACHTECH</text>
</svg>
